<svg id="레이어_1" data-name="레이어 1" xmlns="http://www.w3.org/2000/svg" viewBox="0 0 107.38 88.81"><defs><style>.cls-1{fill:#fcfcfc;}.cls-10,.cls-11,.cls-2{fill:none;}.cls-10,.cls-11,.cls-2,.cls-6,.cls-9{stroke:#000;stroke-linecap:round;}.cls-2,.cls-6{stroke-linejoin:round;}.cls-3{fill:#3f75ea;}.cls-4{fill:#2865d1;}.cls-5{fill:#a0eaea;}.cls-6{fill:#c5fcff;}.cls-7,.cls-9{fill:#fff;}.cls-8{fill:#fdeeee;}.cls-10,.cls-11,.cls-9{stroke-miterlimit:10;}.cls-9{stroke-width:1.1px;}.cls-11{stroke-width:0.88px;}</style></defs><path class="cls-1" d="M71.47,45.89c0-1.42.09-2.85.14-4.27a1.8,1.8,0,0,0-.29-1,2,2,0,0,0-1.53-3.24,1.87,1.87,0,0,0-1.19.39l-45.11-.22a2.08,2.08,0,0,0-.78.15,2.2,2.2,0,0,0-2.25-.12,2,2,0,0,0-.79,2.54,2,2,0,0,0-.07.61L20,53.91a3.14,3.14,0,0,0,0,.75l-.14,2.75a1.71,1.71,0,0,0,.12.68,1.82,1.82,0,0,0-.07,1.24,1.17,1.17,0,0,1,.1.62c0,.23,0,.47-.05.7-.05.58-.13,1.16-.15,1.74-.06,1.21,0,2.42,0,3.62,0,.61,0,1.23,0,1.84s.15,1.24.14,1.86c0,0-.05.41-.05.42a9,9,0,0,0-.14,1.27,8.41,8.41,0,0,0,.18,1.93,1.76,1.76,0,0,0-.29,1c.17,4.24.52,8.69-.12,12.84a2.05,2.05,0,0,0,1.4,2.46,2.3,2.3,0,0,0,1.86-.42,1.93,1.93,0,0,0,1.54.85,70.52,70.52,0,0,0,11.43-.76,59,59,0,0,1,11.12-.19,28.12,28.12,0,0,0,5.27-.22,31.66,31.66,0,0,1,5.76-.05c3.83.28,7.66.56,11.49.89,1.67.14,2.23-1.5,1.73-2.73a2.48,2.48,0,0,0,0-.29q-.07-7.14.06-14.29.06-3.45.17-6.9a47.49,47.49,0,0,0,.07-7.35A2.65,2.65,0,0,0,71,57.06a24.63,24.63,0,0,0,.34-3.93,13,13,0,0,0-.19-2A4.34,4.34,0,0,1,71,49.73,30.9,30.9,0,0,0,71.47,45.89Z" transform="translate(-6.17 -18.19)"/><path class="cls-2" d="M58,44s.5-25.5-12.5-25.31C31.5,18.9,32,44,32,44" transform="translate(-6.17 -18.19)"/><rect class="cls-3" x="13.83" y="70.31" width="52" height="13.5"/><path class="cls-4" d="M69.65,95.83c-8.15-.08-16.28.53-24.42.69-8,.15-15.94-.28-23.9-.64a1.85,1.85,0,0,0-1.88,2.36,1.64,1.64,0,0,0-.17.82l.09,1.53a2,2,0,0,0,2,2c6.29-.48,12.61-.94,18.9-.28a2,2,0,0,0,.42,0,2.19,2.19,0,0,0,.75.12q12.81-.41,25.61,0a1.91,1.91,0,0,0,1-.23,2.14,2.14,0,0,0,3.37-1.53l.24-2.8A2,2,0,0,0,69.65,95.83Z" transform="translate(-6.17 -18.19)"/><rect class="cls-2" x="13.33" y="19.31" width="52" height="65"/><path class="cls-5" d="M35.19,43.37c-.18-.29-.41-.55-.57-.86a1.53,1.53,0,0,0-.51-.56,1.72,1.72,0,0,0-.68-.36,1.55,1.55,0,0,0-.8,0,1.41,1.41,0,0,0-.74.24A2,2,0,0,0,31,43l-.07.53a2,2,0,0,0,.11.64,1.44,1.44,0,0,0-.53.35,1.6,1.6,0,0,0-.41.65,1.45,1.45,0,0,0-.17.77,2,2,0,0,0,.58,1.41l.41.32a2,2,0,0,0,1,.27,5,5,0,0,0,.67,0,7,7,0,0,0,.8-.12,3.91,3.91,0,0,0,.7-.27,2.6,2.6,0,0,0,.8-.59,2.67,2.67,0,0,0,.43-.57,5.15,5.15,0,0,0,.23-.54.5.5,0,0,0,0-.13A3.13,3.13,0,0,0,35.19,43.37Z" transform="translate(-6.17 -18.19)"/><circle class="cls-6" cx="25.83" cy="25.81" r="2.5"/><path class="cls-5" d="M61.19,43.37c-.18-.29-.41-.55-.57-.86a1.53,1.53,0,0,0-.51-.56,1.72,1.72,0,0,0-.68-.36,1.55,1.55,0,0,0-.8,0,1.41,1.41,0,0,0-.74.24A2,2,0,0,0,57,43l-.07.53a2,2,0,0,0,.11.64,1.44,1.44,0,0,0-.53.35,1.6,1.6,0,0,0-.41.65,1.45,1.45,0,0,0-.17.77,2,2,0,0,0,.58,1.41l.41.32a2,2,0,0,0,1,.27,5,5,0,0,0,.67,0,7,7,0,0,0,.8-.12,3.91,3.91,0,0,0,.7-.27,2.6,2.6,0,0,0,.8-.59,2.67,2.67,0,0,0,.43-.57,5.15,5.15,0,0,0,.23-.54.5.5,0,0,0,0-.13A3.13,3.13,0,0,0,61.19,43.37Z" transform="translate(-6.17 -18.19)"/><circle class="cls-6" cx="51.83" cy="25.81" r="2.5"/><path class="cls-2" d="M32,44" transform="translate(-6.17 -18.19)"/><line class="cls-2" x1="13.33" y1="68.89" x2="18.84" y2="68.89"/><line class="cls-2" x1="20.95" y1="68.89" x2="64.84" y2="68.89"/><path class="cls-7" d="M104.63,98.24c-.23-1.33-.76-5.13-.74-5.44a4.87,4.87,0,0,0-.22-2.15,24.5,24.5,0,0,1-.49-3.1c0-.29-.29-4.18-.39-5.85,0-.56-.76-3.37-.84-4.31a20.48,20.48,0,0,0-.42-3.43c-.09-.3-.36-2.06-.38-1.88a7.51,7.51,0,0,0-.33-3.29,2.69,2.69,0,0,0-.28-.53,2,2,0,0,0-1.7-3,1.85,1.85,0,0,0-1.23.42c-1,0-7.07,0-7.32,0a2,2,0,0,0-.79-.13c-9.66.27-19.32.06-29,0a2.09,2.09,0,0,0-.86.17,2.11,2.11,0,0,0-1.31-.51,2,2,0,0,0-2,2c-.46,4.47-2.39,16.19-2.42,16.8A72.41,72.41,0,0,1,53,92c-.22,1.3-.14,2.19-.38,3.48a27,27,0,0,0-.4,3.58C51,102,51,103,53.94,102.63a29.54,29.54,0,0,1,5.48-.3c.93.06,3.23,0,3.5,0,6.5.48,13.1.22,19.62.26a1.91,1.91,0,0,0,1-.26,1.94,1.94,0,0,0,.78.14c6.09-.12,12.17-.3,18.25-.06a2.54,2.54,0,0,0,.93.23C107,103,104.68,98.52,104.63,98.24Z" transform="translate(-6.17 -18.19)"/><polygon class="cls-2" points="99.33 84.31 45.33 84.31 50.33 47.31 94.33 47.31 99.33 84.31"/><path class="cls-8" d="M103.94,99.06C101.5,89,100.87,78.64,99.05,68.47A2,2,0,0,0,96.82,67h-.09c-12.25.19-24.5.52-36.75.25a1.79,1.79,0,0,0-1.81,1.2,3,3,0,0,0-.18.45,40.4,40.4,0,0,0-1.3,8.25,1.16,1.16,0,0,0-.22.55q-1.39,10.2-2.77,20.39a2.82,2.82,0,0,0,.14,1.33,1.87,1.87,0,0,0,1.91,1.71l17.16.09c2.51,0,5,0,7.51-.19a1.88,1.88,0,0,0,1.18.35c6.31-.13,12.73-.58,19,.1a1.34,1.34,0,0,0,.6-.07A2.07,2.07,0,0,0,103.94,99.06Z" transform="translate(-6.17 -18.19)"/><path class="cls-2" d="M68.32,71S69.5,83.5,78.5,83.5,88,71,88,71" transform="translate(-6.17 -18.19)"/><line class="cls-9" x1="8.83" y1="84.31" x2="106.83" y2="84.31"/><line class="cls-10" x1="11.33" y1="88.31" x2="86.33" y2="88.31"/><line class="cls-9" x1="5.43" y1="84.31" x2="0.55" y2="84.31"/><line class="cls-10" x1="89.78" y1="88.31" x2="95.77" y2="88.31"/><line class="cls-11" x1="101.42" y1="88.31" x2="103.65" y2="88.31"/></svg>